<mxfile host="www.draw.io" modified="2019-11-19T11:02:52.843Z" agent="Mozilla/5.0 (Macintosh; Intel Mac OS X 10_15_1) AppleWebKit/537.36 (KHTML, like Gecko) Chrome/78.0.3904.97 Safari/537.36" etag="q1-PKfCfkWW-mgQfGDsn" version="12.2.6" type="github" pages="1">
  <diagram id="N106i3W3YCd03xEBzc0Z" name="Page-1">
    <mxGraphModel dx="932" dy="600" grid="1" gridSize="10" guides="1" tooltips="1" connect="1" arrows="1" fold="1" page="1" pageScale="1" pageWidth="827" pageHeight="1169" math="0" shadow="0">
      <root>
        <mxCell id="0"/>
        <mxCell id="1" parent="0"/>
        <mxCell id="qS_8AtRYpWkxKPDASyzW-3" value="" style="edgeStyle=orthogonalEdgeStyle;rounded=0;orthogonalLoop=1;jettySize=auto;html=1;" parent="1" source="qS_8AtRYpWkxKPDASyzW-1" edge="1">
          <mxGeometry relative="1" as="geometry">
            <mxPoint x="200" y="280" as="targetPoint"/>
          </mxGeometry>
        </mxCell>
        <mxCell id="qS_8AtRYpWkxKPDASyzW-1" value="开始" style="ellipse;whiteSpace=wrap;html=1;aspect=fixed;fillColor=#f8cecc;strokeColor=#b85450;" parent="1" vertex="1">
          <mxGeometry x="40" y="240" width="80" height="80" as="geometry"/>
        </mxCell>
        <mxCell id="qS_8AtRYpWkxKPDASyzW-6" value="" style="edgeStyle=orthogonalEdgeStyle;rounded=0;orthogonalLoop=1;jettySize=auto;html=1;" parent="1" source="qS_8AtRYpWkxKPDASyzW-4" target="qS_8AtRYpWkxKPDASyzW-5" edge="1">
          <mxGeometry relative="1" as="geometry"/>
        </mxCell>
        <mxCell id="qS_8AtRYpWkxKPDASyzW-8" value="" style="edgeStyle=orthogonalEdgeStyle;rounded=0;orthogonalLoop=1;jettySize=auto;html=1;" parent="1" source="qS_8AtRYpWkxKPDASyzW-4" target="qS_8AtRYpWkxKPDASyzW-7" edge="1">
          <mxGeometry relative="1" as="geometry"/>
        </mxCell>
        <mxCell id="qS_8AtRYpWkxKPDASyzW-16" value="" style="edgeStyle=orthogonalEdgeStyle;rounded=0;orthogonalLoop=1;jettySize=auto;html=1;" parent="1" source="qS_8AtRYpWkxKPDASyzW-4" target="qS_8AtRYpWkxKPDASyzW-15" edge="1">
          <mxGeometry relative="1" as="geometry"/>
        </mxCell>
        <mxCell id="qS_8AtRYpWkxKPDASyzW-4" value="DSOC首页" style="rounded=0;whiteSpace=wrap;html=1;fillColor=#dae8fc;strokeColor=#6c8ebf;" parent="1" vertex="1">
          <mxGeometry x="360" y="250" width="120" height="60" as="geometry"/>
        </mxCell>
        <mxCell id="qS_8AtRYpWkxKPDASyzW-17" value="" style="edgeStyle=orthogonalEdgeStyle;rounded=0;orthogonalLoop=1;jettySize=auto;html=1;entryX=0;entryY=0.5;entryDx=0;entryDy=0;" parent="1" source="qS_8AtRYpWkxKPDASyzW-15" target="qS_8AtRYpWkxKPDASyzW-5" edge="1">
          <mxGeometry relative="1" as="geometry"/>
        </mxCell>
        <mxCell id="qS_8AtRYpWkxKPDASyzW-19" value="" style="edgeStyle=orthogonalEdgeStyle;rounded=0;orthogonalLoop=1;jettySize=auto;html=1;entryX=0;entryY=0.5;entryDx=0;entryDy=0;" parent="1" source="qS_8AtRYpWkxKPDASyzW-15" target="qS_8AtRYpWkxKPDASyzW-11" edge="1">
          <mxGeometry relative="1" as="geometry">
            <mxPoint x="420" y="510" as="targetPoint"/>
          </mxGeometry>
        </mxCell>
        <mxCell id="qS_8AtRYpWkxKPDASyzW-15" value="DSOC&lt;br&gt;任务列表" style="rounded=0;whiteSpace=wrap;html=1;fillColor=#dae8fc;strokeColor=#6c8ebf;" parent="1" vertex="1">
          <mxGeometry x="360" y="370" width="120" height="60" as="geometry"/>
        </mxCell>
        <mxCell id="qS_8AtRYpWkxKPDASyzW-14" value="" style="edgeStyle=orthogonalEdgeStyle;rounded=0;orthogonalLoop=1;jettySize=auto;html=1;entryX=0.5;entryY=0;entryDx=0;entryDy=0;" parent="1" source="qS_8AtRYpWkxKPDASyzW-7" target="qS_8AtRYpWkxKPDASyzW-5" edge="1">
          <mxGeometry relative="1" as="geometry">
            <mxPoint x="560" y="140" as="targetPoint"/>
          </mxGeometry>
        </mxCell>
        <mxCell id="qS_8AtRYpWkxKPDASyzW-7" value="生意参谋&lt;br&gt;小店洞察" style="rounded=0;whiteSpace=wrap;html=1;fillColor=#d5e8d4;strokeColor=#82b366;" parent="1" vertex="1">
          <mxGeometry x="360" y="110" width="120" height="60" as="geometry"/>
        </mxCell>
        <mxCell id="qS_8AtRYpWkxKPDASyzW-10" value="" style="edgeStyle=orthogonalEdgeStyle;rounded=0;orthogonalLoop=1;jettySize=auto;html=1;" parent="1" source="qS_8AtRYpWkxKPDASyzW-5" target="qS_8AtRYpWkxKPDASyzW-9" edge="1">
          <mxGeometry relative="1" as="geometry"/>
        </mxCell>
        <mxCell id="qS_8AtRYpWkxKPDASyzW-5" value="DSOC&lt;br&gt;创建运营任务" style="rounded=0;whiteSpace=wrap;html=1;fillColor=#dae8fc;strokeColor=#6c8ebf;" parent="1" vertex="1">
          <mxGeometry x="600" y="250" width="120" height="60" as="geometry"/>
        </mxCell>
        <mxCell id="qS_8AtRYpWkxKPDASyzW-12" value="" style="edgeStyle=orthogonalEdgeStyle;rounded=0;orthogonalLoop=1;jettySize=auto;html=1;" parent="1" source="qS_8AtRYpWkxKPDASyzW-9" target="qS_8AtRYpWkxKPDASyzW-11" edge="1">
          <mxGeometry relative="1" as="geometry"/>
        </mxCell>
        <mxCell id="qS_8AtRYpWkxKPDASyzW-9" value="营销&lt;br&gt;创建品牌券" style="rounded=0;whiteSpace=wrap;html=1;fillColor=#ffe6cc;strokeColor=#d79b00;" parent="1" vertex="1">
          <mxGeometry x="600" y="370" width="120" height="60" as="geometry"/>
        </mxCell>
        <mxCell id="qS_8AtRYpWkxKPDASyzW-25" value="" style="edgeStyle=orthogonalEdgeStyle;rounded=0;orthogonalLoop=1;jettySize=auto;html=1;" parent="1" source="qS_8AtRYpWkxKPDASyzW-11" target="qS_8AtRYpWkxKPDASyzW-21" edge="1">
          <mxGeometry relative="1" as="geometry"/>
        </mxCell>
        <mxCell id="qS_8AtRYpWkxKPDASyzW-11" value="DSOC&lt;br&gt;任务详情" style="rounded=0;whiteSpace=wrap;html=1;fillColor=#dae8fc;strokeColor=#6c8ebf;" parent="1" vertex="1">
          <mxGeometry x="600" y="490" width="120" height="60" as="geometry"/>
        </mxCell>
        <mxCell id="qS_8AtRYpWkxKPDASyzW-24" value="" style="edgeStyle=orthogonalEdgeStyle;rounded=0;orthogonalLoop=1;jettySize=auto;html=1;" parent="1" source="qS_8AtRYpWkxKPDASyzW-20" target="qS_8AtRYpWkxKPDASyzW-4" edge="1">
          <mxGeometry relative="1" as="geometry"/>
        </mxCell>
        <mxCell id="qS_8AtRYpWkxKPDASyzW-29" value="" style="edgeStyle=orthogonalEdgeStyle;rounded=0;orthogonalLoop=1;jettySize=auto;html=1;" parent="1" source="qS_8AtRYpWkxKPDASyzW-20" edge="1">
          <mxGeometry relative="1" as="geometry">
            <mxPoint x="240" y="370" as="targetPoint"/>
          </mxGeometry>
        </mxCell>
        <mxCell id="qS_8AtRYpWkxKPDASyzW-20" value="是否开通？" style="rhombus;whiteSpace=wrap;html=1;fillColor=#f5f5f5;strokeColor=#666666;fontColor=#333333;" parent="1" vertex="1">
          <mxGeometry x="200" y="240" width="80" height="80" as="geometry"/>
        </mxCell>
        <mxCell id="qS_8AtRYpWkxKPDASyzW-21" value="结束" style="ellipse;whiteSpace=wrap;html=1;aspect=fixed;fillColor=#f8cecc;strokeColor=#b85450;" parent="1" vertex="1">
          <mxGeometry x="620" y="610" width="80" height="80" as="geometry"/>
        </mxCell>
        <mxCell id="qS_8AtRYpWkxKPDASyzW-33" value="" style="edgeStyle=orthogonalEdgeStyle;rounded=0;orthogonalLoop=1;jettySize=auto;html=1;entryX=0;entryY=0.5;entryDx=0;entryDy=0;" parent="1" source="qS_8AtRYpWkxKPDASyzW-31" target="qS_8AtRYpWkxKPDASyzW-21" edge="1">
          <mxGeometry relative="1" as="geometry">
            <mxPoint x="240" y="510" as="targetPoint"/>
            <Array as="points">
              <mxPoint x="240" y="650"/>
            </Array>
          </mxGeometry>
        </mxCell>
        <mxCell id="qS_8AtRYpWkxKPDASyzW-31" value="DSOC&lt;br&gt;无权限提示" style="rounded=0;whiteSpace=wrap;html=1;fillColor=#dae8fc;strokeColor=#6c8ebf;" parent="1" vertex="1">
          <mxGeometry x="180" y="370" width="120" height="60" as="geometry"/>
        </mxCell>
      </root>
    </mxGraphModel>
  </diagram>
</mxfile>
